<svg width="156" height="42" viewBox="0 0 156 42" fill="none" xmlns="http://www.w3.org/2000/svg">
<path d="M31.7153 3.84542C31.7153 5.96919 29.9938 7.69085 27.8702 7.69085C27.3165 7.69085 26.7902 7.57382 26.3146 7.36314C26.2766 7.35161 26.2389 7.3376 26.2016 7.32103C24.4528 6.54253 22.5155 6.10937 20.4744 6.10937C12.688 6.10937 6.37577 12.4221 6.37577 20.2093C6.37577 22.0009 6.70945 23.7124 7.31719 25.2865C7.32249 25.3002 7.32744 25.3139 7.33207 25.3278C7.56187 25.8208 7.69019 26.3706 7.69019 26.9505C7.69019 29.0742 5.96868 30.7959 3.84509 30.7959C1.72151 30.7959 0 29.0742 0 26.9505C0 24.8267 1.72151 23.1051 3.84509 23.1051C4.1509 23.1051 4.44837 23.1408 4.73357 23.2082C4.54949 22.2363 4.45322 21.2337 4.45322 20.2093C4.45322 16.9924 5.40115 13.9969 7.0329 11.487C5.18629 11.2058 3.77146 9.61092 3.77146 7.68559C3.77146 5.56182 5.49296 3.84016 7.61655 3.84016C9.50686 3.84016 11.0786 5.20435 11.4011 7.00201C13.9806 5.22621 17.1061 4.18666 20.4744 4.18666C21.7203 4.18666 22.9337 4.32905 24.0988 4.5986C24.0505 4.35504 24.0251 4.10319 24.0251 3.84542C24.0251 1.72166 25.7466 0 27.8702 0C29.9938 0 31.7153 1.72166 31.7153 3.84542Z" fill="#7EB46E"/>
<path d="M24.3195 38.1546C24.3195 40.2783 22.598 42 20.4744 42C18.3509 42 16.6294 40.2783 16.6294 38.1546C16.6294 36.0308 18.3509 34.3092 20.4744 34.3092C28.2609 34.3092 34.5731 27.9964 34.5731 20.2093C34.5731 18.0855 36.2946 16.3638 38.4182 16.3638C40.5418 16.3638 42.2633 18.0855 42.2633 20.2093C42.2633 22.333 40.5418 24.0547 38.4182 24.0547C37.5874 24.0547 36.8181 23.7912 36.1894 23.3431C34.9333 29.6783 29.9427 34.6694 23.608 35.9255C24.056 36.5543 24.3195 37.3237 24.3195 38.1546Z" fill="#7EB46E"/>
<path d="M20.4744 27.9001C24.7216 27.9001 28.1646 24.4568 28.1646 20.2093C28.1646 15.9617 24.7216 12.5184 20.4744 12.5184C16.2273 12.5184 12.7843 15.9617 12.7843 20.2093C12.7843 24.4568 16.2273 27.9001 20.4744 27.9001Z" fill="#7EB46E"/>
<path fill-rule="evenodd" clip-rule="evenodd" d="M102.756 26.6243C102.371 27.0346 101.96 27.3829 101.524 27.6692C100.703 28.2059 99.7954 28.4742 98.8012 28.4742C97.8157 28.4742 96.9383 28.2275 96.1689 27.7341C95.4082 27.232 94.8073 26.5352 94.3665 25.6435C93.9342 24.7433 93.7181 23.7045 93.7181 22.5272C93.7181 21.1768 93.9774 20.0125 94.4961 19.0343C95.0148 18.0561 95.715 17.303 96.5968 16.775C97.4872 16.2469 98.4814 15.9829 99.5793 15.9829C100.556 15.9829 101.416 16.2166 102.16 16.6841C102.336 16.7939 102.505 16.914 102.665 17.0443V11.8148C102.665 11.5984 102.631 11.4426 102.562 11.3474C102.493 11.2521 102.389 11.1872 102.25 11.1526L101.524 11.1136C101.386 11.0703 101.282 11.0097 101.213 10.9318C101.144 10.8539 101.109 10.7544 101.109 10.6332C101.109 10.4947 101.153 10.3778 101.239 10.2826C101.325 10.1874 101.472 10.1008 101.68 10.0229L104.053 9.21786C104.312 9.12263 104.524 9.05338 104.688 9.0101C104.861 8.95816 105.021 8.93219 105.168 8.93219C105.376 8.93219 105.535 8.99711 105.648 9.12696C105.76 9.25681 105.816 9.42561 105.816 9.63337V26.098C105.816 26.3664 105.855 26.5655 105.933 26.6953C106.02 26.8165 106.136 26.9031 106.283 26.955L106.789 27.0719C106.936 27.1411 107.044 27.219 107.113 27.3056C107.191 27.3922 107.23 27.5047 107.23 27.6432C107.23 27.8077 107.174 27.9375 107.061 28.0327C106.958 28.128 106.802 28.1756 106.594 28.1756H104.079C103.69 28.1756 103.37 28.0587 103.119 27.825C102.877 27.5913 102.756 27.2753 102.756 26.8771V26.6243ZM102.665 25.5198C102.403 25.8267 102.122 26.08 101.823 26.2798C101.287 26.6347 100.707 26.8122 100.085 26.8122C99.4971 26.8122 98.9698 26.639 98.503 26.2928C98.0362 25.9465 97.6688 25.4315 97.4008 24.7476C97.1328 24.0637 96.9988 23.2111 96.9988 22.1896C96.9988 21.1162 97.1371 20.2246 97.4137 19.5147C97.6904 18.8049 98.0664 18.2725 98.5419 17.9176C99.0173 17.5627 99.5533 17.3853 100.15 17.3853C100.781 17.3853 101.364 17.5627 101.9 17.9176C102.177 18.101 102.432 18.3318 102.665 18.6099V25.5198Z" fill="#2A4023"/>
<path d="M141.353 16.736V26.098C141.353 26.3664 141.392 26.5611 141.47 26.6823C141.547 26.8035 141.664 26.8944 141.82 26.955L142.325 27.0719C142.472 27.1325 142.58 27.2104 142.65 27.3056C142.727 27.3922 142.766 27.5047 142.766 27.6432C142.766 27.8077 142.71 27.9375 142.598 28.0327C142.494 28.128 142.334 28.1756 142.118 28.1756H137.411C137.203 28.1756 137.044 28.128 136.931 28.0327C136.827 27.9375 136.776 27.8077 136.776 27.6432C136.776 27.5133 136.81 27.4051 136.879 27.3186C136.957 27.2234 137.069 27.1454 137.216 27.0848L137.722 26.955C137.886 26.8944 138.007 26.8035 138.085 26.6823C138.163 26.5611 138.202 26.3707 138.202 26.111V18.9304C138.202 18.7054 138.167 18.5452 138.098 18.45C138.029 18.3548 137.921 18.2942 137.774 18.2682L137.061 18.2293C136.922 18.1773 136.819 18.1124 136.75 18.0345C136.68 17.9566 136.646 17.857 136.646 17.7358C136.646 17.5973 136.689 17.4848 136.776 17.3982C136.862 17.303 137.009 17.2165 137.216 17.1385L139.576 16.3335C139.844 16.2383 140.061 16.169 140.225 16.1257C140.398 16.0738 140.553 16.0478 140.692 16.0478C140.908 16.0478 141.072 16.1127 141.184 16.2426C141.297 16.3638 141.353 16.5283 141.353 16.736Z" fill="#2A4023"/>
<path d="M139.538 14.0352C138.924 14.0352 138.431 13.8664 138.059 13.5288C137.688 13.1825 137.502 12.7367 137.502 12.1914C137.502 11.6547 137.688 11.2175 138.059 10.8799C138.431 10.5423 138.924 10.3735 139.538 10.3735C140.16 10.3735 140.657 10.5423 141.029 10.8799C141.409 11.2175 141.599 11.6547 141.599 12.1914C141.599 12.7367 141.409 13.1825 141.029 13.5288C140.657 13.8664 140.16 14.0352 139.538 14.0352Z" fill="#2A4023"/>
<path fill-rule="evenodd" clip-rule="evenodd" d="M149.811 27.9289C150.354 27.6721 150.82 27.3398 151.208 26.9319C151.272 27.3565 151.472 27.7018 151.808 27.9678C152.231 28.2968 152.793 28.4612 153.494 28.4612C154.004 28.4612 154.432 28.366 154.777 28.1756C155.132 27.9938 155.4 27.7644 155.581 27.4874C155.772 27.2104 155.867 26.9377 155.867 26.6693C155.867 26.5395 155.836 26.4356 155.776 26.3577C155.715 26.2711 155.629 26.2279 155.517 26.2279C155.456 26.2279 155.404 26.2452 155.361 26.2798C155.318 26.3144 155.274 26.3534 155.231 26.3967C155.179 26.4919 155.11 26.5741 155.024 26.6434C154.937 26.704 154.816 26.7343 154.661 26.7343C154.479 26.7343 154.341 26.6737 154.246 26.5525C154.151 26.4313 154.103 26.2582 154.103 26.0331V19.4758C154.103 18.4024 153.744 17.5541 153.027 16.9308C152.318 16.2989 151.242 15.9829 149.798 15.9829C148.614 15.9829 147.615 16.143 146.803 16.4633C145.99 16.7836 145.376 17.1948 144.961 17.6969C144.546 18.1903 144.339 18.7054 144.339 19.2421C144.339 19.6489 144.46 19.9692 144.702 20.2029C144.944 20.4367 145.294 20.5535 145.752 20.5535C146.297 20.5535 146.72 20.4237 147.023 20.164C147.326 19.8956 147.477 19.5277 147.477 19.0603V18.1643C147.477 17.8354 147.62 17.5541 147.905 17.3203C148.19 17.0866 148.605 16.9697 149.15 16.9697C149.72 16.9697 150.165 17.1385 150.485 17.4761C150.805 17.8137 150.965 18.2985 150.965 18.9304V22.2887C150.787 22.2363 150.596 22.1903 150.394 22.1507C149.962 22.0641 149.482 22.0208 148.955 22.0208C147.33 22.0208 146.059 22.3411 145.143 22.9817C144.235 23.6223 143.781 24.4663 143.781 25.5137C143.781 26.4053 144.11 27.1238 144.767 27.6692C145.424 28.2059 146.288 28.4742 147.36 28.4742C148.233 28.4742 149.05 28.2924 149.811 27.9289ZM150.265 26.5655C150.52 26.4352 150.753 26.276 150.965 26.0878V23.2023C150.764 23.1311 150.561 23.0705 150.356 23.0206C150.036 22.9427 149.686 22.9038 149.305 22.9038C148.579 22.9038 148.009 23.0856 147.594 23.4491C147.187 23.8127 146.984 24.3191 146.984 24.9683C146.984 25.6003 147.161 26.0807 147.516 26.4096C147.87 26.7386 148.32 26.9031 148.864 26.9031C149.357 26.9031 149.824 26.7905 150.265 26.5655Z" fill="#2A4023"/>
<path d="M126.561 18.1829V16.736C126.561 16.5283 126.505 16.3638 126.393 16.2426C126.281 16.1127 126.121 16.0478 125.913 16.0478C125.766 16.0478 125.606 16.0738 125.433 16.1257C125.269 16.169 125.057 16.2383 124.798 16.3335L122.425 17.1385C122.217 17.2165 122.071 17.303 121.984 17.3982C121.898 17.4848 121.854 17.5973 121.854 17.7358C121.854 17.857 121.889 17.9566 121.958 18.0345C122.027 18.1124 122.131 18.1773 122.269 18.2293L122.995 18.2682C123.134 18.2942 123.238 18.3548 123.307 18.45C123.376 18.5452 123.41 18.7054 123.41 18.9304V26.111C123.41 26.3707 123.372 26.5611 123.294 26.6823C123.216 26.8035 123.099 26.8944 122.944 26.955L122.425 27.0848C122.278 27.1454 122.166 27.2234 122.088 27.3186C122.019 27.4051 121.984 27.5133 121.984 27.6432C121.984 27.8077 122.04 27.9375 122.153 28.0327C122.265 28.128 122.421 28.1756 122.619 28.1756H127.301C127.707 28.1756 127.91 27.9938 127.91 27.6302C127.91 27.4051 127.78 27.2363 127.521 27.1238L127.028 26.981C126.864 26.929 126.743 26.8425 126.665 26.7213C126.596 26.5914 126.561 26.3837 126.561 26.098V19.3049L126.704 19.1771C127.162 18.7616 127.59 18.463 127.988 18.2812C128.394 18.0908 128.779 17.9955 129.142 17.9955C129.704 17.9955 130.127 18.1773 130.413 18.5409C130.707 18.8958 130.897 19.4412 130.983 20.177L131.696 26.085C131.731 26.362 131.701 26.5698 131.606 26.7083C131.519 26.8381 131.39 26.929 131.217 26.981L130.711 27.1238C130.452 27.2363 130.322 27.4051 130.322 27.6302C130.322 27.9938 130.525 28.1756 130.931 28.1756H135.664C135.872 28.1756 136.027 28.128 136.131 28.0327C136.244 27.9375 136.3 27.8077 136.3 27.6432C136.3 27.5047 136.261 27.3922 136.183 27.3056C136.114 27.219 136.006 27.1454 135.859 27.0848L135.392 26.955C135.228 26.9031 135.111 26.8122 135.042 26.6823C134.973 26.5525 134.921 26.349 134.886 26.072L134.108 19.5018C133.979 18.3937 133.646 17.5281 133.11 16.9048C132.583 16.2816 131.83 15.9699 130.854 15.9699C130.179 15.9699 129.475 16.169 128.74 16.5672C128.103 16.9162 127.377 17.4548 126.561 18.1829Z" fill="#2A4023"/>
<path fill-rule="evenodd" clip-rule="evenodd" d="M114.522 15.9829C115.776 15.9829 116.874 16.2513 117.816 16.788C118.767 17.316 119.506 18.0518 120.034 18.9954C120.569 19.9303 120.837 21.0166 120.837 22.2545C120.837 23.4405 120.565 24.5052 120.021 25.4488C119.476 26.3837 118.72 27.1195 117.751 27.6562C116.783 28.1929 115.668 28.4612 114.406 28.4612C113.161 28.4612 112.063 28.1972 111.112 27.6692C110.17 27.1411 109.431 26.4053 108.895 25.4618C108.359 24.5182 108.091 23.4318 108.091 22.2026C108.091 21.008 108.363 19.9432 108.908 19.0083C109.452 18.0734 110.209 17.3376 111.177 16.8009C112.145 16.2556 113.26 15.9829 114.522 15.9829ZM115.417 27.1368C115.996 27.0329 116.468 26.7516 116.831 26.2928C117.202 25.834 117.444 25.2194 117.557 24.4489C117.678 23.6699 117.643 22.7653 117.453 21.7351C117.263 20.6704 116.978 19.7918 116.597 19.0992C116.217 18.4067 115.763 17.909 115.236 17.606C114.717 17.303 114.151 17.2035 113.537 17.3073C112.958 17.4026 112.482 17.6796 112.111 18.1384C111.739 18.5972 111.497 19.2161 111.384 19.9952C111.272 20.7656 111.307 21.6702 111.488 22.709C111.687 23.7651 111.977 24.6394 112.357 25.3319C112.746 26.0244 113.204 26.5222 113.731 26.8252C114.259 27.1281 114.821 27.232 115.417 27.1368Z" fill="#2A4023"/>
<path d="M91.4324 16.736V26.098C91.4324 26.3664 91.4713 26.5611 91.5491 26.6823C91.6269 26.8035 91.7436 26.8944 91.8993 26.955L92.405 27.0719C92.5519 27.1325 92.66 27.2104 92.7291 27.3056C92.8069 27.3922 92.8458 27.5047 92.8458 27.6432C92.8458 27.8077 92.7897 27.9375 92.6773 28.0327C92.5735 28.128 92.4136 28.1756 92.1975 28.1756H87.4904C87.2829 28.1756 87.123 28.128 87.0106 28.0327C86.9069 27.9375 86.855 27.8077 86.855 27.6432C86.855 27.5133 86.8896 27.4051 86.9588 27.3186C87.0366 27.2234 87.1489 27.1454 87.2959 27.0848L87.8016 26.955C87.9659 26.8944 88.0869 26.8035 88.1647 26.6823C88.2425 26.5611 88.2814 26.3707 88.2814 26.111V18.9304C88.2814 18.7054 88.2468 18.5452 88.1777 18.45C88.1085 18.3548 88.0005 18.2942 87.8535 18.2682L87.1403 18.2293C87.002 18.1773 86.8983 18.1124 86.8291 18.0345C86.7599 17.9566 86.7254 17.857 86.7254 17.7358C86.7254 17.5973 86.7686 17.4848 86.855 17.3982C86.9415 17.303 87.0884 17.2165 87.2959 17.1385L89.6559 16.3335C89.9239 16.2383 90.14 16.169 90.3043 16.1257C90.4772 16.0738 90.6328 16.0478 90.7711 16.0478C90.9872 16.0478 91.1515 16.1127 91.2639 16.2426C91.3762 16.3638 91.4324 16.5283 91.4324 16.736Z" fill="#2A4023"/>
<path d="M89.617 14.0352C89.0033 14.0352 88.5105 13.8664 88.1388 13.5288C87.767 13.1825 87.5812 12.7367 87.5812 12.1914C87.5812 11.6547 87.767 11.2175 88.1388 10.8799C88.5105 10.5423 89.0033 10.3735 89.617 10.3735C90.2395 10.3735 90.7365 10.5423 91.1082 10.8799C91.4886 11.2175 91.6788 11.6547 91.6788 12.1914C91.6788 12.7367 91.4886 13.1825 91.1082 13.5288C90.7365 13.8664 90.2395 14.0352 89.617 14.0352Z" fill="#2A4023"/>
<path d="M80.6296 21.4625V26.085C80.6296 26.3361 80.6771 26.5308 80.7722 26.6693C80.8673 26.7992 81.0272 26.8814 81.252 26.916L82.3283 27.0719C82.5098 27.0978 82.6438 27.1628 82.7303 27.2666C82.8254 27.3619 82.8729 27.4874 82.8729 27.6432C82.8729 27.8077 82.8167 27.9375 82.7043 28.0327C82.5919 28.128 82.432 28.1756 82.2245 28.1756H76.7135C76.506 28.1756 76.3461 28.128 76.2337 28.0327C76.1213 27.9375 76.0651 27.8077 76.0651 27.6432C76.0651 27.5047 76.104 27.3922 76.1818 27.3056C76.2597 27.219 76.372 27.1411 76.519 27.0719L77.0247 26.955C77.1803 26.9031 77.297 26.8165 77.3748 26.6953C77.4526 26.5741 77.4915 26.3793 77.4915 26.111V18.9304C77.4915 18.7054 77.457 18.5452 77.3878 18.45C77.3186 18.3548 77.2149 18.2899 77.0766 18.2552L76.3504 18.2163C76.2121 18.173 76.1084 18.1124 76.0392 18.0345C75.9701 17.9566 75.9355 17.857 75.9355 17.7358C75.9355 17.5973 75.9787 17.4805 76.0651 17.3853C76.1516 17.29 76.2986 17.2078 76.506 17.1385L78.879 16.3465C79.147 16.2513 79.3588 16.182 79.5144 16.1387C79.6787 16.0868 79.817 16.0608 79.9294 16.0608C80.0936 16.0608 80.219 16.1171 80.3054 16.2296C80.4005 16.3421 80.461 16.5326 80.4869 16.8009L80.5783 18.7894C80.6183 18.6727 80.6613 18.5596 80.7074 18.45C81.0532 17.6276 81.5027 17.0087 82.056 16.5932C82.6179 16.1777 83.2273 15.9699 83.8843 15.9699C84.6278 15.9699 85.2027 16.195 85.609 16.6451C86.0239 17.0866 86.2314 17.7142 86.2314 18.5279C86.2314 19.2118 86.0888 19.7225 85.8035 20.0601C85.5268 20.3891 85.1594 20.5535 84.7013 20.5535C84.2517 20.5535 83.9059 20.4367 83.6639 20.2029C83.4305 19.9606 83.3095 19.623 83.3008 19.1901V18.7487C83.3008 18.4716 83.236 18.2682 83.1063 18.1384C82.9766 18.0085 82.7865 17.9436 82.5358 17.9436C82.2159 17.9436 81.909 18.0734 81.6151 18.3331C81.3212 18.5928 81.0834 18.9824 80.9019 19.5018C80.7204 20.0212 80.6296 20.6747 80.6296 21.4625Z" fill="#2A4023"/>
<path fill-rule="evenodd" clip-rule="evenodd" d="M74.9463 20.6964C74.9463 21.1292 74.821 21.4625 74.5703 21.6962C74.3282 21.9213 73.9781 22.0338 73.5199 22.0338H66.6215C66.7191 23.3206 67.0908 24.3204 67.7366 25.0333C68.4973 25.8643 69.4958 26.2798 70.732 26.2798C71.5273 26.2798 72.2146 26.098 72.7938 25.7344C73.3816 25.3622 73.8052 24.8861 74.0646 24.3061C74.1769 24.1763 74.272 24.0854 74.3498 24.0334C74.4276 23.9815 74.5098 23.9555 74.5962 23.9555C74.6999 23.9555 74.7821 24.0031 74.8426 24.0984C74.9117 24.1849 74.9463 24.3061 74.9463 24.4619C74.9031 25.1804 74.6567 25.8426 74.2072 26.4486C73.7577 27.0546 73.1482 27.5436 72.3788 27.9159C71.6094 28.2881 70.719 28.4742 69.7076 28.4742C68.506 28.4742 67.4556 28.2232 66.5566 27.7211C65.6575 27.2104 64.9573 26.5005 64.4559 25.5916C63.9545 24.674 63.7038 23.6136 63.7038 22.4103C63.7038 21.1725 63.9502 20.0688 64.4429 19.0992C64.9357 18.1297 65.6402 17.3679 66.5566 16.8139C67.4816 16.2599 68.5751 15.9829 69.8373 15.9829C70.8746 15.9829 71.7737 16.1863 72.5344 16.5932C73.3038 17 73.896 17.5584 74.3109 18.2682C74.7345 18.978 74.9463 19.7874 74.9463 20.6964ZM66.5985 21.0859H71.108C71.5316 21.0859 71.7434 20.8825 71.7434 20.4756C71.7434 19.4368 71.5273 18.6361 71.0951 18.0734C70.6628 17.5108 70.1052 17.2294 69.4223 17.2294C68.869 17.2294 68.3806 17.3896 67.957 17.7099C67.5334 18.0302 67.2006 18.4976 66.9586 19.1122C66.7386 19.6629 66.6186 20.3208 66.5985 21.0859Z" fill="#2A4023"/>
<path d="M59.4023 10.1657C59.2813 10.2696 59.2208 10.4168 59.2208 10.6072C59.2208 10.7717 59.2684 10.9015 59.3634 10.9968C59.4585 11.0833 59.5882 11.1569 59.7525 11.2175L60.5564 11.3863C60.9368 11.4988 61.1702 11.6676 61.2567 11.8927C61.3517 12.1178 61.3301 12.4208 61.1918 12.8016L57.0862 25.0229L52.8669 12.529C52.7459 12.174 52.7113 11.9144 52.7632 11.7499C52.815 11.5854 52.949 11.4685 53.1651 11.3993L54.0728 11.2305C54.2544 11.1612 54.3884 11.079 54.4748 10.9838C54.5699 10.8886 54.6175 10.763 54.6175 10.6072C54.6175 10.4168 54.557 10.2696 54.4359 10.1657C54.3149 10.0532 54.1247 9.99694 53.8654 9.99694H48.082C47.8313 9.99694 47.6455 10.0532 47.5244 10.1657C47.4034 10.2696 47.3429 10.4168 47.3429 10.6072C47.3429 10.9015 47.4985 11.1136 47.8097 11.2435L48.3284 11.4123C48.5186 11.4815 48.6612 11.5811 48.7563 11.7109C48.8601 11.8321 48.9551 12.0226 49.0416 12.2823L53.7098 25.9292C53.7789 26.137 53.8394 26.3231 53.8913 26.4876C53.9432 26.6434 53.9691 26.7949 53.9691 26.942V27.4874C53.9691 27.7124 54.021 27.8856 54.1247 28.0068C54.2371 28.1193 54.3841 28.1756 54.5656 28.1756H57.4184C57.5999 28.1756 57.7426 28.1193 57.8463 28.0068C57.9587 27.8856 58.0149 27.7168 58.0149 27.5004V26.968C58.0149 26.7775 58.0408 26.5914 58.0927 26.4096C58.1445 26.2192 58.218 25.9811 58.3131 25.6955L62.6052 12.9055C62.7608 12.4294 62.9208 12.0832 63.085 11.8667C63.2579 11.6503 63.4697 11.4902 63.7204 11.3863L64.2261 11.2175C64.4077 11.1396 64.5373 11.0574 64.6151 10.9708C64.7016 10.8756 64.7448 10.7544 64.7448 10.6072C64.7448 10.4168 64.6843 10.2696 64.5633 10.1657C64.4422 10.0532 64.2564 9.99694 64.0057 9.99694H59.9599C59.7179 9.99694 59.532 10.0532 59.4023 10.1657Z" fill="#2A4023"/>
</svg>
